<svg xmlns="http://www.w3.org/2000/svg" viewBox="0 0 1600 560" role="img" aria-labelledby="title desc">
  <title id="title">Mi-Llama product banner</title>
  <desc id="desc">Mi-Llama, an evidence-grounded AI research and writing studio.</desc>
  <defs>
    <linearGradient id="bg" x1="0" y1="0" x2="1" y2="1">
      <stop offset="0" stop-color="#0B1020"/>
      <stop offset="0.58" stop-color="#121936"/>
      <stop offset="1" stop-color="#0B2A2D"/>
    </linearGradient>
    <linearGradient id="g" x1="0" y1="0" x2="1" y2="1">
      <stop offset="0" stop-color="#8B6BFF"/>
      <stop offset="0.55" stop-color="#5B7CFA"/>
      <stop offset="1" stop-color="#2DD4BF"/>
    </linearGradient>
    <radialGradient id="halo">
      <stop offset="0" stop-color="#7C5CFC" stop-opacity=".28"/>
      <stop offset="1" stop-color="#7C5CFC" stop-opacity="0"/>
    </radialGradient>
  </defs>
  <rect width="1600" height="560" rx="48" fill="url(#bg)"/>
  <circle cx="1290" cy="280" r="360" fill="url(#halo)"/>
  <g opacity=".17" fill="none" stroke="#9CA9C8">
    <path d="M890 108c125 0 125 344 250 344s125-344 250-344"/>
    <path d="M930 80c120 0 120 400 240 400s120-400 240-400"/>
    <circle cx="1040" cy="150" r="7" fill="#2DD4BF" stroke="none"/>
    <circle cx="1220" cy="410" r="7" fill="#7C5CFC" stroke="none"/>
    <circle cx="1400" cy="154" r="7" fill="#5B7CFA" stroke="none"/>
  </g>
  <g transform="translate(1060 58) scale(.86)">
    <path d="M143 121 202 72l30 93h48l30-93 59 49-22 94c28 28 43 65 43 108 0 91-59 145-134 145s-134-54-134-145c0-43 15-80 43-108l-22-94Z" fill="url(#g)"/>
    <path d="M174 202c19-14 45-21 78-21 32 0 59 7 78 21l-13 45c-18-9-39-14-65-14s-48 5-65 14l-13-45Z" fill="#0B1020" opacity=".92"/>
    <circle cx="210" cy="286" r="10" fill="#F8FAFC"/>
    <circle cx="302" cy="286" r="10" fill="#F8FAFC"/>
    <path d="M224 335c20 13 44 13 64 0" fill="none" stroke="#F8FAFC" stroke-width="12" stroke-linecap="round"/>
    <path d="M153 365c43-30 78-34 103-12 25-22 60-18 103 12v50c-44-28-79-31-103-9-24-22-59-19-103 9v-50Z" fill="#F8FAFC"/>
    <path d="M256 353v53" stroke="#0B1020" stroke-width="8" stroke-linecap="round"/>
  </g>
  <text x="104" y="180" fill="#F8FAFC" font-family="Inter, ui-sans-serif, system-ui, sans-serif" font-size="96" font-weight="780" letter-spacing="-4">Mi-Llama</text>
  <text x="109" y="248" fill="#C9D4EE" font-family="Inter, ui-sans-serif, system-ui, sans-serif" font-size="32" font-weight="560">AI research and writing studio</text>
  <text x="109" y="310" fill="#9CA9C8" font-family="Inter, ui-sans-serif, system-ui, sans-serif" font-size="24">Sources → Research → Evidence → Notebook → Manuscript</text>
  <g transform="translate(109 365)">
    <rect width="215" height="58" rx="29" fill="#7C5CFC" fill-opacity=".16" stroke="#8B6BFF"/>
    <text x="29" y="37" fill="#DCD6FF" font-family="Inter, ui-sans-serif, system-ui, sans-serif" font-size="20" font-weight="650">Evidence-grounded</text>
    <rect x="235" width="190" height="58" rx="29" fill="#2DD4BF" fill-opacity=".12" stroke="#2DD4BF"/>
    <text x="267" y="37" fill="#BDF8EC" font-family="Inter, ui-sans-serif, system-ui, sans-serif" font-size="20" font-weight="650">Local-model ready</text>
    <rect x="445" width="200" height="58" rx="29" fill="#5B7CFA" fill-opacity=".13" stroke="#5B7CFA"/>
    <text x="478" y="37" fill="#C9D8FF" font-family="Inter, ui-sans-serif, system-ui, sans-serif" font-size="20" font-weight="650">Project-centered</text>
  </g>
</svg>
